<svg width="63" height="72" viewBox="0 0 63 72" fill="none" xmlns="http://www.w3.org/2000/svg">
<path d="M59.625 30.2344L10.125 0.984375C8.8125 0.140625 7.35938 -0.140625 5.76562 0.140625C4.17188 0.328125 2.8125 1.03125 1.6875 2.25C0.5625 3.375 0 4.875 0 6.75V65.25C0 66.9375 0.515625 68.3906 1.54688 69.6094C2.67188 70.8281 4.03125 71.5781 5.625 71.8594C7.21875 72.1406 8.71875 71.8594 10.125 71.0156L59.625 41.7656C61.125 40.9219 62.1094 39.75 62.5781 38.25C63.1406 36.75 63.1406 35.25 62.5781 33.75C62.1094 32.25 61.125 31.0781 59.625 30.2344Z" fill="white"/>
</svg>

