<svg width="18" height="19" viewBox="0 0 18 19" fill="none" xmlns="http://www.w3.org/2000/svg">
<path d="M17.7539 15.8242C17.918 15.9883 18 16.1875 18 16.4219C18 16.6562 17.918 16.8555 17.7539 17.0195L16.7696 18.0039C16.6055 18.168 16.4063 18.25 16.1719 18.25C15.9375 18.25 15.7383 18.168 15.5742 18.0039L12.0586 14.4883C11.8946 14.3242 11.8125 14.125 11.8125 13.8906V13.3281C10.5 14.3594 9.00003 14.875 7.31253 14.875C5.29691 14.875 3.57425 14.1602 2.14456 12.7305C0.714874 11.3008 3.05176e-05 9.57812 3.05176e-05 7.5625C3.05176e-05 5.54688 0.714874 3.82422 2.14456 2.39453C3.57425 0.964844 5.29691 0.25 7.31253 0.25C9.32816 0.25 11.0508 0.964844 12.4805 2.39453C13.9102 3.82422 14.625 5.54688 14.625 7.5625C14.625 9.25 14.1094 10.75 13.0782 12.0625H13.6407C13.875 12.0625 14.0742 12.1445 14.2383 12.3086L17.7539 15.8242ZM4.11331 10.7617C5.00394 11.6289 6.07034 12.0625 7.31253 12.0625C8.55472 12.0625 9.60941 11.6289 10.4766 10.7617C11.3672 9.87109 11.8125 8.80469 11.8125 7.5625C11.8125 6.32031 11.3672 5.26563 10.4766 4.39844C9.60941 3.50781 8.55472 3.0625 7.31253 3.0625C6.07034 3.0625 5.00394 3.50781 4.11331 4.39844C3.24612 5.26563 2.81253 6.32031 2.81253 7.5625C2.81253 8.80469 3.24612 9.87109 4.11331 10.7617Z" fill="#BDBDBD"/>
</svg>

