<svg width="13" height="15" viewBox="0 0 13 15" fill="none" xmlns="http://www.w3.org/2000/svg">
<path d="M6.5 7.75C7.13802 7.75 7.72135 7.59505 8.25 7.28516C8.79688 6.97526 9.22526 6.55599 9.53516 6.02734C9.84505 5.48047 10 4.88802 10 4.25C10 3.61198 9.84505 3.02865 9.53516 2.5C9.22526 1.95312 8.79688 1.52474 8.25 1.21484C7.72135 0.904948 7.13802 0.75 6.5 0.75C5.86198 0.75 5.26953 0.904948 4.72266 1.21484C4.19401 1.52474 3.77474 1.95312 3.46484 2.5C3.15495 3.02865 3 3.61198 3 4.25C3 4.88802 3.15495 5.48047 3.46484 6.02734C3.77474 6.55599 4.19401 6.97526 4.72266 7.28516C5.26953 7.59505 5.86198 7.75 6.5 7.75ZM8.96094 8.625H8.49609C7.85807 8.91667 7.19271 9.0625 6.5 9.0625C5.80729 9.0625 5.14193 8.91667 4.50391 8.625H4.03906C3.38281 8.625 2.77214 8.78906 2.20703 9.11719C1.64193 9.44531 1.19531 9.89193 0.867188 10.457C0.539062 11.0221 0.375 11.6328 0.375 12.2891V13.4375C0.375 13.8021 0.502604 14.112 0.757812 14.3672C1.01302 14.6224 1.32292 14.75 1.6875 14.75H11.3125C11.6771 14.75 11.987 14.6224 12.2422 14.3672C12.4974 14.112 12.625 13.8021 12.625 13.4375V12.2891C12.625 11.6328 12.4609 11.0221 12.1328 10.457C11.8047 9.89193 11.3581 9.44531 10.793 9.11719C10.2279 8.78906 9.61719 8.625 8.96094 8.625Z" fill="#E86060"/>
</svg>

